# xmcd CD database file
#
# Track frame offsets:
#	150
#	27734
#	58040
#	80507
#	100108
#	128248
#	157873
#	183763
#	199959
#
# Disc length: 2930 seconds
#
# Revision: 0
# Processed by: cddbd v1.5.2PL0 Copyright (c) Steve Scherf et al.
# Submitted via: CDex 1.70beta2
#
DISCID=720b7009
DTITLE=Davis and Deleault - Davis and Deleault
DYEAR=2006
DGENRE=Jazz
TTITLE0=June Theme
TTITLE1=Naked As We Came
TTITLE2=The Four Winds
TTITLE3=Three's A Waltz
TTITLE4=Strawberry Fields Forever
TTITLE5=Lament
TTITLE6=Having Said That
TTITLE7=Softly As In A Morning Sunrise
TTITLE8=Coming Home
EXTD=YEAR: 2006
EXTT0=
EXTT1=
EXTT2=
EXTT3=
EXTT4=
EXTT5=
EXTT6=
EXTT7=
EXTT8=
PLAYORDER=
